<mxfile host="Electron" agent="Mozilla/5.0 (Windows NT 10.0; Win64; x64) AppleWebKit/537.36 (KHTML, like Gecko) draw.io/28.0.6 Chrome/138.0.7204.100 Electron/37.2.3 Safari/537.36" version="28.0.6">
  <diagram name="Page-1" id="UZ-3IO8nmq5PSCl2xuxt">
    <mxGraphModel dx="1042" dy="626" grid="1" gridSize="10" guides="1" tooltips="1" connect="1" arrows="1" fold="1" page="1" pageScale="1" pageWidth="850" pageHeight="1100" math="0" shadow="0">
      <root>
        <mxCell id="0" />
        <mxCell id="1" parent="0" />
        <mxCell id="Atba6j55vklWOn0_R54J-1" value="" style="rounded=0;whiteSpace=wrap;html=1;dashed=1;strokeColor=#808080;gradientColor=none;glass=0;fillStyle=hatch;" parent="1" vertex="1">
          <mxGeometry x="37.5" y="80" width="120" height="520" as="geometry" />
        </mxCell>
        <mxCell id="Atba6j55vklWOn0_R54J-2" value="&lt;b&gt;SOURCE&lt;/b&gt;" style="rounded=0;whiteSpace=wrap;html=1;" parent="1" vertex="1">
          <mxGeometry x="55" y="70" width="90" height="20" as="geometry" />
        </mxCell>
        <mxCell id="Atba6j55vklWOn0_R54J-3" value="" style="rounded=0;whiteSpace=wrap;html=1;strokeColor=#999999;gradientColor=none;glass=0;fillStyle=hatch;" parent="1" vertex="1">
          <mxGeometry x="190" y="80" width="660" height="520" as="geometry" />
        </mxCell>
        <mxCell id="Atba6j55vklWOn0_R54J-4" value="" style="rounded=0;whiteSpace=wrap;html=1;dashed=1;strokeColor=#999999;gradientColor=none;glass=0;fillStyle=hatch;" parent="1" vertex="1">
          <mxGeometry x="890" y="80" width="120" height="520" as="geometry" />
        </mxCell>
        <mxCell id="Atba6j55vklWOn0_R54J-5" value="BRONZE LAYER" style="rounded=0;whiteSpace=wrap;html=1;strokeColor=#1A1A1A;fillColor=#FFCE9F;" parent="1" vertex="1">
          <mxGeometry x="240" y="90" width="120" height="20" as="geometry" />
        </mxCell>
        <mxCell id="Atba6j55vklWOn0_R54J-7" value="" style="rounded=0;whiteSpace=wrap;html=1;dashed=1;strokeColor=#FFB570;fillColor=#FFFFFF;fillStyle=hatch;" parent="1" vertex="1">
          <mxGeometry x="220" y="110" width="180" height="470" as="geometry" />
        </mxCell>
        <mxCell id="Atba6j55vklWOn0_R54J-8" value="SILVER LAYER" style="rounded=0;whiteSpace=wrap;html=1;strokeColor=#999999;fillColor=#999999;" parent="1" vertex="1">
          <mxGeometry x="460" y="90" width="120" height="20" as="geometry" />
        </mxCell>
        <mxCell id="Atba6j55vklWOn0_R54J-9" value="GOLD LAYER" style="rounded=0;whiteSpace=wrap;html=1;strokeColor=#999999;fillColor=#FFFF66;" parent="1" vertex="1">
          <mxGeometry x="690" y="90" width="120" height="20" as="geometry" />
        </mxCell>
        <mxCell id="Atba6j55vklWOn0_R54J-10" value="&lt;div&gt;&lt;br&gt;&lt;/div&gt;" style="rounded=0;whiteSpace=wrap;html=1;dashed=1;strokeColor=#999999;fillColor=#FFFFFF;fillStyle=hatch;" parent="1" vertex="1">
          <mxGeometry x="440" y="110" width="180" height="470" as="geometry" />
        </mxCell>
        <mxCell id="Atba6j55vklWOn0_R54J-11" value="" style="rounded=0;whiteSpace=wrap;html=1;dashed=1;strokeColor=#FFD966;fillColor=#FFFFFF;fillStyle=hatch;" parent="1" vertex="1">
          <mxGeometry x="650" y="110" width="180" height="470" as="geometry" />
        </mxCell>
        <mxCell id="Atba6j55vklWOn0_R54J-13" value="&lt;b&gt;CONSUME&lt;/b&gt;" style="rounded=0;whiteSpace=wrap;html=1;" parent="1" vertex="1">
          <mxGeometry x="905" y="70" width="90" height="20" as="geometry" />
        </mxCell>
        <mxCell id="tt_tXClf1Q1X0mpbk6oC-1" value="CRM" style="image;aspect=fixed;html=1;points=[];align=center;fontSize=12;image=img/lib/azure2/general/Folder_Blank.svg;" vertex="1" parent="1">
          <mxGeometry x="70" y="120" width="61.6" height="50" as="geometry" />
        </mxCell>
        <mxCell id="tt_tXClf1Q1X0mpbk6oC-2" value="" style="image;aspect=fixed;html=1;points=[];align=center;fontSize=12;image=img/lib/azure2/general/Files.svg;" vertex="1" parent="1">
          <mxGeometry x="108.43" y="150" width="36.57" height="40" as="geometry" />
        </mxCell>
        <mxCell id="tt_tXClf1Q1X0mpbk6oC-4" value="ERP" style="image;aspect=fixed;html=1;points=[];align=center;fontSize=12;image=img/lib/azure2/general/Folder_Blank.svg;" vertex="1" parent="1">
          <mxGeometry x="69.2" y="220" width="61.6" height="50" as="geometry" />
        </mxCell>
        <mxCell id="tt_tXClf1Q1X0mpbk6oC-5" value="" style="image;aspect=fixed;html=1;points=[];align=center;fontSize=12;image=img/lib/azure2/general/Files.svg;" vertex="1" parent="1">
          <mxGeometry x="115" y="250" width="30" height="32.81" as="geometry" />
        </mxCell>
        <mxCell id="tt_tXClf1Q1X0mpbk6oC-8" value="" style="line;strokeWidth=1;fillColor=none;align=left;verticalAlign=middle;spacingTop=-1;spacingLeft=3;spacingRight=3;rotatable=0;labelPosition=right;points=[];portConstraint=eastwest;strokeColor=inherit;" vertex="1" parent="1">
          <mxGeometry x="55" y="320" width="95" height="8" as="geometry" />
        </mxCell>
        <mxCell id="tt_tXClf1Q1X0mpbk6oC-9" value="&lt;b&gt;Object Type&lt;/b&gt;: CSV files&lt;br&gt;&lt;b&gt;Interface&lt;/b&gt; : files in folder" style="rounded=0;whiteSpace=wrap;html=1;fillStyle=hatch;dashed=1;fillColor=#FFFFFF;strokeColor=#FFFFFF;" vertex="1" parent="1">
          <mxGeometry x="40" y="360" width="105" height="70" as="geometry" />
        </mxCell>
        <mxCell id="tt_tXClf1Q1X0mpbk6oC-10" value="" style="html=1;verticalLabelPosition=bottom;align=center;labelBackgroundColor=#ffffff;verticalAlign=top;strokeWidth=2;strokeColor=#FFB570;shadow=0;dashed=0;shape=mxgraph.ios7.icons.data;fillColor=#FFCE9F;" vertex="1" parent="1">
          <mxGeometry x="289" y="200" width="42" height="60" as="geometry" />
        </mxCell>
        <mxCell id="tt_tXClf1Q1X0mpbk6oC-11" value="" style="html=1;verticalLabelPosition=bottom;align=center;labelBackgroundColor=#ffffff;verticalAlign=top;strokeWidth=2;strokeColor=#808080;shadow=0;dashed=0;shape=mxgraph.ios7.icons.data;fillColor=#CCCCCC;" vertex="1" parent="1">
          <mxGeometry x="520" y="195" width="42" height="60" as="geometry" />
        </mxCell>
        <mxCell id="tt_tXClf1Q1X0mpbk6oC-12" value="" style="html=1;verticalLabelPosition=bottom;align=center;labelBackgroundColor=#ffffff;verticalAlign=top;strokeWidth=2;strokeColor=#FFD966;shadow=0;dashed=0;shape=mxgraph.ios7.icons.data;fillColor=#FFE599;" vertex="1" parent="1">
          <mxGeometry x="714" y="200" width="42" height="60" as="geometry" />
        </mxCell>
        <mxCell id="tt_tXClf1Q1X0mpbk6oC-14" value="" style="html=1;shadow=0;dashed=0;align=center;verticalAlign=middle;shape=mxgraph.arrows2.arrow;dy=0.68;dx=31.4;notch=0;fillColor=#99CCFF;" vertex="1" parent="1">
          <mxGeometry x="360" y="290" width="80" height="20" as="geometry" />
        </mxCell>
        <mxCell id="tt_tXClf1Q1X0mpbk6oC-16" value="" style="html=1;shadow=0;dashed=0;align=center;verticalAlign=middle;shape=mxgraph.arrows2.arrow;dy=0.6;dx=28.4;notch=0;fillColor=#99CCFF;" vertex="1" parent="1">
          <mxGeometry x="600" y="290" width="80" height="20" as="geometry" />
        </mxCell>
        <mxCell id="tt_tXClf1Q1X0mpbk6oC-17" value="" style="html=1;shadow=0;dashed=0;align=center;verticalAlign=middle;shape=mxgraph.arrows2.arrow;dy=0.6;dx=28.4;notch=0;fillColor=#99CCFF;" vertex="1" parent="1">
          <mxGeometry x="150" y="282.81" width="80" height="20" as="geometry" />
        </mxCell>
        <mxCell id="tt_tXClf1Q1X0mpbk6oC-18" value="" style="html=1;shadow=0;dashed=0;align=center;verticalAlign=middle;shape=mxgraph.arrows2.arrow;dy=0.52;dx=37.2;notch=0;fillColor=#99CCFF;" vertex="1" parent="1">
          <mxGeometry x="820" y="290" width="100" height="20" as="geometry" />
        </mxCell>
        <mxCell id="tt_tXClf1Q1X0mpbk6oC-20" value="&lt;b&gt;Object Type&lt;/b&gt;: Table&lt;br&gt;&lt;b&gt;Load:&amp;nbsp;&lt;/b&gt;&lt;br&gt;&lt;ul&gt;&lt;li&gt;&amp;nbsp;Batch Processing&lt;/li&gt;&lt;li&gt;Full Load&lt;/li&gt;&lt;li&gt;Truncate and Insert&lt;/li&gt;&lt;/ul&gt;&lt;div&gt;No Transformation&lt;br&gt;Data Model: None&lt;/div&gt;" style="rounded=0;whiteSpace=wrap;html=1;fillStyle=hatch;dashed=1;fillColor=#FFFFFF;strokeColor=#FFFFFF;" vertex="1" parent="1">
          <mxGeometry x="247.5" y="350" width="105" height="70" as="geometry" />
        </mxCell>
        <mxCell id="tt_tXClf1Q1X0mpbk6oC-30" value="Raw Data" style="text;html=1;align=center;verticalAlign=middle;whiteSpace=wrap;rounded=0;" vertex="1" parent="1">
          <mxGeometry x="280" y="270" width="60" height="30" as="geometry" />
        </mxCell>
        <mxCell id="tt_tXClf1Q1X0mpbk6oC-31" value="Cleaned , Standarized Data&lt;div&gt;&lt;br&gt;&lt;/div&gt;" style="text;html=1;align=center;verticalAlign=middle;whiteSpace=wrap;rounded=0;" vertex="1" parent="1">
          <mxGeometry x="450" y="277.81" width="160" height="30" as="geometry" />
        </mxCell>
        <mxCell id="tt_tXClf1Q1X0mpbk6oC-32" value="&lt;b&gt;Object Type&lt;/b&gt;: Table&lt;br&gt;&lt;b&gt;Load:&amp;nbsp;&lt;/b&gt;&lt;br&gt;&lt;ul&gt;&lt;li&gt;&amp;nbsp;Batch Processing&lt;/li&gt;&lt;li&gt;Full Load&lt;/li&gt;&lt;li&gt;Truncate and Insert&lt;/li&gt;&lt;/ul&gt;&lt;div&gt;&lt;b&gt;Transformation&lt;/b&gt;:&lt;/div&gt;&lt;div&gt;&lt;ul&gt;&lt;li&gt;Data Cleansing&lt;/li&gt;&lt;li&gt;Data Standarization&lt;/li&gt;&lt;li&gt;Data Normalization&lt;/li&gt;&lt;li&gt;Derived Columns&lt;/li&gt;&lt;li&gt;Data enrichments&lt;/li&gt;&lt;/ul&gt;Data Model: None&lt;/div&gt;" style="text;html=1;align=center;verticalAlign=middle;whiteSpace=wrap;rounded=0;" vertex="1" parent="1">
          <mxGeometry x="460" y="330" width="140" height="210" as="geometry" />
        </mxCell>
        <mxCell id="tt_tXClf1Q1X0mpbk6oC-33" value="Business Ready Data" style="text;html=1;align=center;verticalAlign=middle;whiteSpace=wrap;rounded=0;" vertex="1" parent="1">
          <mxGeometry x="680" y="270" width="130" height="30" as="geometry" />
        </mxCell>
        <mxCell id="tt_tXClf1Q1X0mpbk6oC-34" value="&lt;b&gt;Object Type&lt;/b&gt;: Table&lt;br&gt;&lt;b&gt;Load:&amp;nbsp;&lt;/b&gt;&lt;br&gt;&lt;ul&gt;&lt;li&gt;&amp;nbsp;Batch Processing&lt;/li&gt;&lt;li&gt;Full Load&lt;/li&gt;&lt;li&gt;Truncate and Insert&lt;/li&gt;&lt;/ul&gt;&lt;div&gt;&lt;b&gt;Transformation&lt;/b&gt;:&lt;/div&gt;&lt;div&gt;&lt;ul&gt;&lt;li&gt;Data Integrations&lt;/li&gt;&lt;li&gt;Aggregations&lt;/li&gt;&lt;li&gt;Business Logics&lt;/li&gt;&lt;/ul&gt;Data Model:&amp;nbsp;&lt;/div&gt;&lt;div&gt;&lt;ul&gt;&lt;li&gt;Satr schema&lt;/li&gt;&lt;li&gt;Flat table&lt;/li&gt;&lt;li&gt;Aggregated Table&lt;/li&gt;&lt;/ul&gt;&lt;/div&gt;" style="text;html=1;align=center;verticalAlign=middle;whiteSpace=wrap;rounded=0;" vertex="1" parent="1">
          <mxGeometry x="665" y="330" width="140" height="210" as="geometry" />
        </mxCell>
        <mxCell id="tt_tXClf1Q1X0mpbk6oC-35" value="" style="image;aspect=fixed;html=1;points=[];align=center;fontSize=12;image=img/lib/azure2/power_platform/PowerBI.svg;" vertex="1" parent="1">
          <mxGeometry x="920" y="200" width="51" height="68" as="geometry" />
        </mxCell>
        <mxCell id="tt_tXClf1Q1X0mpbk6oC-36" value="BI and Reporting" style="text;html=1;align=center;verticalAlign=middle;whiteSpace=wrap;rounded=0;" vertex="1" parent="1">
          <mxGeometry x="920" y="277.81" width="60" height="30" as="geometry" />
        </mxCell>
        <mxCell id="tt_tXClf1Q1X0mpbk6oC-37" value="&lt;b&gt;DATA WAREHOUSE&lt;/b&gt;" style="text;html=1;align=center;verticalAlign=middle;resizable=0;points=[];autosize=1;strokeColor=none;fillColor=none;" vertex="1" parent="1">
          <mxGeometry x="410" y="50" width="140" height="30" as="geometry" />
        </mxCell>
        <mxCell id="tt_tXClf1Q1X0mpbk6oC-38" value="" style="sketch=0;outlineConnect=0;fontColor=#232F3E;gradientColor=none;fillColor=#C925D1;strokeColor=none;dashed=0;verticalLabelPosition=bottom;verticalAlign=top;align=center;html=1;fontSize=12;fontStyle=0;aspect=fixed;pointerEvents=1;shape=mxgraph.aws4.rds_sql_server_instance;" vertex="1" parent="1">
          <mxGeometry x="170" y="50" width="50" height="50" as="geometry" />
        </mxCell>
        <mxCell id="tt_tXClf1Q1X0mpbk6oC-39" value="SQL SERVER" style="text;html=1;align=center;verticalAlign=middle;resizable=0;points=[];autosize=1;strokeColor=none;fillColor=none;" vertex="1" parent="1">
          <mxGeometry x="225" y="50" width="100" height="30" as="geometry" />
        </mxCell>
      </root>
    </mxGraphModel>
  </diagram>
</mxfile>
